# xmcd
#
# Track frame offsets:
#	150
#	11255
#	22992
#	35569
#	47770
#	59944
#	70562
#	81779
#	94577
#	105231
#	117991
#	128949
#	139997
#	151214
#	162990
#	173779
#	183874
#	195804
#	207874
#	218712
#	229790
#	240011
#	250952
#	261633
#	272005
#	283075
#	293116
#	303110
#	312751
#	324494
#	337716
#	348834
#
# Disc length: 4788 seconds
#
# Revision: 1
# Processed by: cddbd v1.5.2PL0 Copyright (c) Steve Scherf et al.
# Submitted via: EasyCDDAExtractor 7.0.3.1
#
DISCID=b512b220
DTITLE=Jean Shepard - Beautiful Lies (The Early Years)
DYEAR=2009
DGENRE=Country
TTITLE0=Crying Steel Guitar
TTITLE1=I'd Rather Die Young
TTITLE2=My Wedding Ring
TTITLE3=Why Did You Wait
TTITLE4=The Mysteries Of Life
TTITLE5=Two Whoops and A Holler
TTITLE6=A Satisfied Mind
TTITLE7=Beautiful Lies
TTITLE8=You're Calling Me Sweetheart Again
TTITLE9=Girls in Disgrace
TTITLE10=Over and Over
TTITLE11=Tell Me What I Want To Hear
TTITLE12=Shadows On the Wall
TTITLE13=I'll Thank You All of My Life
TTITLE14=I Learned It All From You
TTITLE15=Hello Old Broken Heart
TTITLE16=Sad Singin and Slow Ridin
TTITLE17=It's Hard To Tell the Married From the Free
TTITLE18=Did I Turn Down A Better Deal
TTITLE19=A Passing Love Affair
TTITLE20=I Married You For Love
TTITLE21=Under Suspicion 
TTITLE22=The Other Woman
TTITLE23=Act Like A Married Man
TTITLE24=The Weak and the Strong
TTITLE25=You'd Better Go
TTITLE26=A Thief in the Night
TTITLE27=Memory
TTITLE28=I Love You Because
TTITLE29=You Win Again
TTITLE30=You Can't Break the Chains of Love
TTITLE31=Sweet Temptation
EXTD=
EXTT0=
EXTT1=
EXTT2=
EXTT3=
EXTT4=
EXTT5=
EXTT6=
EXTT7=
EXTT8=
EXTT9=
EXTT10=
EXTT11=
EXTT12=
EXTT13=
EXTT14=
EXTT15=
EXTT16=
EXTT17=
EXTT18=
EXTT19=
EXTT20=
EXTT21=
EXTT22=
EXTT23=
EXTT24=
EXTT25=
EXTT26=
EXTT27=
EXTT28=
EXTT29=
EXTT30=
EXTT31=
PLAYORDER=
